<svg width="26" height="26" viewBox="0 0 26 26" fill="none" xmlns="http://www.w3.org/2000/svg">
<g id="Home">
<g id="Group">
<path id="Vector" d="M24.4616 7.96253L13.5146 2.05511C13.1928 1.88178 12.8061 1.88178 12.4854 2.05511L1.54372 7.96253C1.01722 8.24853 0.821141 8.90503 1.10497 9.43153C1.29997 9.79444 1.67372 10.0003 2.05831 10.0003C2.23164 10.0003 2.40931 9.95911 2.57289 9.87028L3.36806 9.44128L5.09056 21.6288C5.32456 22.9439 6.50972 23.8626 7.97222 23.8626H18.0277C19.4902 23.8626 20.6754 22.9439 20.9116 21.6006L22.6319 9.44019L23.4303 9.87136C23.9557 10.1563 24.6133 9.96019 24.8971 9.43369C25.1821 8.90719 24.9838 8.24961 24.4595 7.96578L24.4616 7.96253ZM13 16.7213C11.0554 16.7213 9.47914 15.145 9.47914 13.2004C9.47914 11.2559 11.0554 9.67961 13 9.67961C14.9446 9.67961 16.5208 11.2559 16.5208 13.2004C16.5208 15.145 14.9446 16.7213 13 16.7213Z" fill="#1DA1F2"/>
</g>
</g>
</svg>
