<svg width="19" height="18" viewBox="0 0 19 18" fill="none" xmlns="http://www.w3.org/2000/svg">
<g id="Like">
<g id="Group">
<path id="Vector" d="M9.5 16.2285H9.4895C7.55225 16.1925 1.9625 11.142 1.9625 6.3585C1.9625 4.0605 3.85625 2.043 6.01475 2.043C7.73225 2.043 8.88725 3.228 9.49925 4.0905C10.1097 3.2295 11.2647 2.043 12.983 2.043C15.143 2.043 17.036 4.0605 17.036 6.35925C17.036 11.1412 11.4455 16.1917 9.50825 16.227H9.5V16.2285ZM6.0155 3.16875C4.4555 3.16875 3.08825 4.65975 3.08825 6.36C3.08825 10.665 8.36375 15.057 9.50075 15.1035C10.6392 15.057 15.9132 10.6657 15.9132 6.36C15.9132 4.65975 14.546 3.16875 12.986 3.16875C11.09 3.16875 10.031 5.37075 10.022 5.3925C9.8495 5.814 9.155 5.814 8.98175 5.3925C8.97125 5.37 7.913 3.16875 6.01625 3.16875H6.0155Z" fill="#828282"/>
</g>
</g>
</svg>
