<svg width="26" height="26" viewBox="0 0 26 26" fill="none" xmlns="http://www.w3.org/2000/svg">
<g id="List">
<g id="Group">
<path id="Vector" d="M21.3959 23.8334H4.60419C3.26085 23.8334 2.16669 22.7392 2.16669 21.3959V4.60419C2.16669 3.26085 3.26085 2.16669 4.60419 2.16669H21.3959C22.7392 2.16669 23.8334 3.26085 23.8334 4.60419V21.3959C23.8334 22.7392 22.7392 23.8334 21.3959 23.8334ZM4.60419 3.79169C4.15569 3.79169 3.79169 4.15677 3.79169 4.60419V21.3959C3.79169 21.8433 4.15569 22.2084 4.60419 22.2084H21.3959C21.8444 22.2084 22.2084 21.8433 22.2084 21.3959V4.60419C22.2084 4.15677 21.8444 3.79169 21.3959 3.79169H4.60419Z" fill="black"/>
<path id="Vector_2" d="M18.4167 9.36005H7.58337C7.13487 9.36005 6.77087 8.99496 6.77087 8.54755C6.77087 8.10013 7.13487 7.73505 7.58337 7.73505H18.4167C18.8652 7.73505 19.2292 8.09796 19.2292 8.54755C19.2292 8.99713 18.8652 9.36005 18.4167 9.36005ZM18.4167 13.8125H7.58337C7.13487 13.8125 6.77087 13.4485 6.77087 13C6.77087 12.5515 7.13487 12.1875 7.58337 12.1875H18.4167C18.8652 12.1875 19.2292 12.5515 19.2292 13C19.2292 13.4485 18.8652 13.8125 18.4167 13.8125ZM13 18.265H7.58337C7.13487 18.265 6.77087 17.9021 6.77087 17.4525C6.77087 17.003 7.13487 16.64 7.58337 16.64H13C13.4485 16.64 13.8125 17.0051 13.8125 17.4525C13.8125 17.9 13.4485 18.265 13 18.265Z" fill="black"/>
</g>
</g>
</svg>
