<svg width="19" height="18" viewBox="0 0 19 18" fill="none" xmlns="http://www.w3.org/2000/svg">
<g id="Message">
<g id="Group">
<path id="Vector" d="M11.0345 1.6815L7.92349 1.674H7.92199C4.64149 1.674 2.07199 4.24425 2.07199 7.5255C2.07199 10.599 4.46149 12.93 7.67074 13.053V15.924C7.67074 16.005 7.70374 16.1385 7.76074 16.2262C7.86724 16.395 8.04874 16.4865 8.23474 16.4865C8.33824 16.4865 8.44249 16.458 8.53624 16.398C8.73424 16.272 13.391 13.293 14.6022 12.2685C16.0287 11.061 16.8822 9.291 16.8845 7.5345V7.52175C16.88 4.2465 14.312 1.6815 11.0345 1.68075V1.6815ZM13.8747 11.4105C13.0242 12.1305 10.2282 13.9642 8.79574 14.8927V12.5025C8.79574 12.192 8.54449 11.94 8.23324 11.94H7.93624C5.19124 11.94 3.19774 10.083 3.19774 7.5255C3.19774 4.875 5.27374 2.799 7.92274 2.799L11.033 2.8065H11.0345C13.6835 2.8065 15.7595 4.881 15.761 7.5285C15.7587 8.961 15.0545 10.4115 13.8755 11.4105H13.8747Z" fill="#828282"/>
</g>
</g>
</svg>
