<svg width="26" height="26" viewBox="0 0 26 26" fill="none" xmlns="http://www.w3.org/2000/svg">
<path d="M20.8542 3.26947H5.14585C3.50244 3.26947 2.16669 4.6063 2.16669 6.2508V19.7871C2.16669 21.4316 3.50244 22.7695 5.14585 22.7695H20.8542C22.4976 22.7695 23.8334 21.4316 23.8334 19.7871V6.2508C23.8334 4.6063 22.4976 3.26947 20.8542 3.26947ZM5.14585 4.89447H20.8542C21.6017 4.89447 22.2084 5.50114 22.2084 6.24864V7.02214L13.4875 12.8364C13.1918 13.0314 12.8094 13.0336 12.5125 12.8342L3.79169 7.02214V6.24864C3.79169 5.50114 4.39835 4.89447 5.14585 4.89447V4.89447ZM20.8542 21.1423H5.14585C4.39835 21.1423 3.79169 20.5356 3.79169 19.7881V8.92664L11.635 14.1591C12.0499 14.4365 12.5255 14.5751 13 14.5751C13.4767 14.5751 13.9501 14.4365 14.365 14.1602L22.2084 8.92772V19.7849C22.2084 20.5324 21.6017 21.1391 20.8542 21.1391V21.1423Z" fill="black"/>
</svg>
