<svg width="19" height="18" viewBox="0 0 19 18" fill="none" xmlns="http://www.w3.org/2000/svg">
<g id="Retweet" clip-path="url(#clip0_8_188)">
<g id="Group">
<path id="Vector" d="M18.3275 11.7525C18.1085 11.5327 17.7522 11.5327 17.5325 11.7525L15.8675 13.4175V5.7375C15.8675 4.1865 14.6052 2.925 13.055 2.925H8.6675C8.357 2.925 8.105 3.177 8.105 3.4875C8.105 3.798 8.357 4.05 8.6675 4.05H13.055C13.985 4.05 14.7425 4.8075 14.7425 5.7375V13.4175L13.0775 11.7525C12.8577 11.5327 12.5015 11.5327 12.2825 11.7525C12.0635 11.9722 12.062 12.3285 12.2825 12.5475L14.9075 15.1725C15.0162 15.2827 15.1602 15.3375 15.305 15.3375C15.4497 15.3375 15.5922 15.2835 15.7025 15.1725L18.3275 12.5475C18.548 12.3285 18.548 11.9722 18.3275 11.7525ZM10.3325 14.2125H5.945C5.015 14.2125 4.2575 13.455 4.2575 12.525V4.845L5.9225 6.51C6.0335 6.62025 6.1775 6.675 6.3215 6.675C6.4655 6.675 6.6095 6.62025 6.719 6.51C6.93875 6.29025 6.93875 5.934 6.719 5.715L4.094 3.09C3.87425 2.8695 3.518 2.8695 3.299 3.09L0.673996 5.715C0.453496 5.934 0.453496 6.29025 0.673996 6.51C0.894496 6.72975 1.24925 6.72975 1.469 6.51L3.134 4.845V12.525C3.134 14.076 4.39625 15.3375 5.9465 15.3375H10.334C10.6445 15.3375 10.8965 15.0855 10.8965 14.775C10.8965 14.4645 10.6437 14.2125 10.334 14.2125H10.3325Z" fill="#828282"/>
</g>
</g>
<defs>
<clipPath id="clip0_8_188">
<rect width="18" height="18" fill="white" transform="translate(0.5)"/>
</clipPath>
</defs>
</svg>
