<svg width="20" height="20" viewBox="0 0 20 20" fill="none" xmlns="http://www.w3.org/2000/svg">
<g id="Search">
<g id="Group">
<path id="Vector" d="M17.9417 17.0584L14.8917 14.0084C15.9958 12.7 16.6667 11.0117 16.6667 9.16669C16.6667 5.02502 13.3083 1.66669 9.16666 1.66669C5.02499 1.66669 1.66666 5.02502 1.66666 9.16669C1.66666 13.3084 5.02499 16.6667 9.16666 16.6667C11.0125 16.6667 12.7 15.9967 14.0067 14.8917L17.0567 17.9417C17.1792 18.0634 17.34 18.125 17.4983 18.125C17.6567 18.125 17.8192 18.0642 17.94 17.9417C18.1858 17.6975 18.1858 17.3025 17.9417 17.0584ZM2.91666 9.16669C2.91666 5.72085 5.72082 2.91669 9.16666 2.91669C12.6125 2.91669 15.4167 5.72085 15.4167 9.16669C15.4167 12.6125 12.6125 15.4167 9.16666 15.4167C5.72082 15.4167 2.91666 12.6125 2.91666 9.16669Z" fill="#828282"/>
</g>
</g>
</svg>
