<svg width="19" height="18" viewBox="0 0 19 18" fill="none" xmlns="http://www.w3.org/2000/svg">
<g id="Upload">
<g id="Group">
<path id="Vector" d="M13.6475 5.6025L9.89749 1.8525C9.67774 1.63275 9.32149 1.63275 9.10249 1.8525L5.35249 5.6025C5.13199 5.82225 5.13199 6.17849 5.35249 6.3975C5.57299 6.6165 5.92774 6.618 6.14749 6.3975L8.93749 3.6075V11.25C8.93749 11.5605 9.18949 11.8125 9.49999 11.8125C9.81049 11.8125 10.0625 11.5605 10.0625 11.25V3.6075L12.8525 6.3975C12.962 6.50775 13.106 6.5625 13.25 6.5625C13.394 6.5625 13.538 6.5085 13.6475 6.3975C13.8672 6.17775 13.8672 5.82225 13.6475 5.6025Z" fill="#828282"/>
<path id="Vector_2" d="M15.281 16.458H3.719C2.771 16.458 2 15.687 2 14.739V10.5C2 10.1895 2.252 9.9375 2.5625 9.9375C2.873 9.9375 3.125 10.1895 3.125 10.5V14.739C3.125 15.0668 3.39125 15.333 3.719 15.333H15.281C15.6088 15.333 15.875 15.0668 15.875 14.739V10.5C15.875 10.1895 16.127 9.9375 16.4375 9.9375C16.748 9.9375 17 10.1895 17 10.5V14.739C17 15.687 16.229 16.458 15.281 16.458Z" fill="#828282"/>
</g>
</g>
</svg>
